<svg xmlns="http://www.w3.org/2000/svg" version="1.1" xmlns:xlink="http://www.w3.org/1999/xlink" xmlns:svgjs="http://svgjs.dev/svgjs" width="128" height="128" viewBox="0 0 128 128"><g transform="matrix(0.8046875,0,0,0.8046875,12.333870967741937,12.333870967741937)"><svg viewBox="0 0 155 155" data-background-color="#0a1627" preserveAspectRatio="xMidYMid meet" height="128" width="128" xmlns="http://www.w3.org/2000/svg" xmlns:xlink="http://www.w3.org/1999/xlink"><g id="tight-bounds" transform="matrix(1,0,0,1,0.25,0.25)"><svg viewBox="0 0 154.5 154.5" height="154.5" width="154.5"><g><svg></svg></g><g><svg viewBox="0 0 154.5 154.5" height="154.5" width="154.5"><g transform="matrix(1,0,0,1,53.45065778489117,47.746371)"><svg viewBox="0 0 47.59868443021766 59.00725799999999" height="59.00725799999999" width="47.59868443021766"><g><svg viewBox="0 0 47.59868443021766 59.00725799999999" height="59.00725799999999" width="47.59868443021766"><g><svg viewBox="0 0 47.59868443021766 59.00725799999999" height="59.00725799999999" width="47.59868443021766"><g><svg viewBox="0 0 47.59868443021766 59.00725799999999" height="59.00725799999999" width="47.59868443021766"><g><svg viewBox="0 0 47.59868443021766 59.00725799999999" height="59.00725799999999" width="47.59868443021766"><g transform="matrix(1,0,0,1,0,0)"><svg width="47.59868443021766" viewBox="5 -39.05 31.5 39.05" height="59.00725799999999" data-palette-color="#fe0039"><path d="M7.55 0L7.55 0Q6.45 0 5.73-0.75 5-1.5 5-2.6L5-2.6 5-36.45Q5-37.6 5.73-38.33 6.45-39.05 7.55-39.05L7.55-39.05Q8.75-39.05 9.55-38.1L9.55-38.1 31.35-9.1 31.35-36.45Q31.35-37.6 32.1-38.33 32.85-39.05 33.95-39.05L33.95-39.05Q35.1-39.05 35.8-38.33 36.5-37.6 36.5-36.45L36.5-36.45 36.5-2.6Q36.5-1.5 35.8-0.75 35.1 0 33.95 0L33.95 0Q33.45 0 32.88-0.23 32.3-0.45 31.95-0.9L31.95-0.9 10.15-29.9 10.15-2.6Q10.15-1.5 9.43-0.75 8.7 0 7.55 0Z" opacity="1" transform="matrix(1,0,0,1,0,0)" fill="#fe0039" class="undefined-text-0" data-fill-palette-color="primary" id="text-0"></path></svg></g></svg></g></svg></g></svg></g></svg></g></svg></g><g><path d="M50.629 33.816A23.799 23.799 0 0 1 103.871 33.816L98.549 33.816A18.478 18.478 0 0 0 55.951 33.816L50.629 33.816M50.629 120.684A23.799 23.799 0 0 0 103.871 120.684L98.549 120.684A18.478 18.478 0 0 1 55.951 120.684L50.629 120.684" fill="#fe0039" stroke="transparent" data-fill-palette-color="tertiary"></path></g></svg></g><defs></defs></svg><rect width="154.5" height="154.5" fill="none" stroke="none" visibility="hidden"></rect></g></svg></g></svg>